<?xml version="1.0" encoding="utf-8"?>
<!-- Generator: Adobe Illustrator 19.0.0, SVG Export Plug-In . SVG Version: 6.00 Build 0)  -->
<svg version="1.1" id="Layer_1" xmlns="http://www.w3.org/2000/svg" xmlns:xlink="http://www.w3.org/1999/xlink" x="0px" y="0px"
	 viewBox="0 0 96 96" style="enable-background:new 0 0 96 96;" xml:space="preserve">
<style type="text/css">
	.st0{fill:#333333;}
</style>
<g id="XMLID_1_">
	<path id="XMLID_3_" class="st0" d="M48,38.3c-7.2,0-13,5.8-13,13c0,7.2,5.8,13,13,13s13-5.8,13-13C61,44.1,55.2,38.3,48,38.3z"/>
	<path id="XMLID_6_" class="st0" d="M74,28.5h-6.3c-2.2,0-4.2-1.1-5.4-2.9l-2.6-4c-1.2-1.8-3.2-2.9-5.4-2.9H41.7
		c-2.2,0-4.2,1.1-5.4,2.9l-2.6,4c-1.2,1.8-3.2,2.9-5.4,2.9H22c-3.6,0-6.5,2.9-6.5,6.5v35.8c0,3.6,2.9,6.5,6.5,6.5h52
		c3.6,0,6.5-2.9,6.5-6.5V35C80.5,31.4,77.6,28.5,74,28.5z M48,70.8c-10.8,0-19.5-8.7-19.5-19.5c0-10.8,8.7-19.5,19.5-19.5
		s19.5,8.7,19.5,19.5C67.5,62,58.8,70.8,48,70.8z"/>
</g>
</svg>
